#!OML:ASF I:\salsa\salsa 7_09\Patient 1\Session 1\dancermale.ASF
:FULLY-SPECIFIED
:DEGREES
1402
root 10.1239 16.6838 -4.64403 9.44663 98.207 5.42599
lowerback -3.39385 4.94515 3.54975
upperback -3.51728 6.58813 -0.855833
thorax -1.23231 3.25255 -2.67769
lowerneck -4.85132 2.38611 2.26957
upperneck 34.1705 9.48156 -10.6326
head 12.8515 4.25198 -3.16388
rclavicle 1.36478e-014 7.35503e-015
rhumerus -45.6927 -28.3799 -41.0017
rradius 85.1705
rwrist -46.9144
rhand -10.5475 -3.88258
rfingers 7.12502
rthumb 15.4564 -33.2846
lclavicle 1.36478e-014 7.35503e-015
lhumerus 80.3974 39.213 19.6869
lradius 99.3668
lwrist 91.4843
lhand -9.63902 61.0465
lfingers 7.12502
lthumb 16.3312 629.621
rfemur -29.0493 -27.2626 22.2291
rtibia 71.4961
rfoot -6.14418 9.52822
rtoes -21.3927
lfemur -34.2513 5.41718 -32.5701
ltibia 48.0914
lfoot 350.666 3.21716
ltoes 7.47331
1403
root 10.1715 16.6522 -4.5407 10.4688 99.933 6.39173
lowerback -3.33535 4.87013 3.82123
upperback -3.53041 6.48926 -0.682026
thorax -1.27693 3.19928 -2.65923
lowerneck -4.26316 2.21111 2.63107
upperneck 33.7899 9.20701 -10.8943
head 12.563 4.19184 -3.36817
rclavicle -1.09332e-015 -1.2921e-015
rhumerus -46.7673 -27.3992 -38.6813
rradius 84.4976
rwrist -48.2799
rhand -8.88216 -3.61905
rfingers 7.12502
rthumb 17.0599 -32.89
lclavicle -1.09332e-015 -1.2921e-015
lhumerus 80.2851 39.8648 20.5464
lradius 101.382
lwrist 92.4315
lhand -10.1551 61.2181
lfingers 7.12502
lthumb 15.8343 629.409
rfemur -30.1863 -26.5167 21.6187
rtibia 73.9185
rfoot -6.79201 6.29877
rtoes -21.9811
lfemur -33.6458 3.45804 -31.8367
ltibia 47.6042
lfoot 349.518 3.31569
ltoes 8.46095
1404
root 10.2042 16.6252 -4.43161 11.4231 101.564 7.28353
lowerback -3.16363 4.87601 4.14745
upperback -3.64372 6.5086 -0.530687
thorax -1.47171 3.20025 -2.70541
lowerneck -4.46962 2.04054 2.13317
upperneck 34.4046 8.95643 -10.1333
head 12.7824 4.10624 -3.01513
rclavicle 2.47456e-014 3.47873e-015
rhumerus -47.9079 -26.5369 -36.4466
rradius 83.7856
rwrist -49.2237
rhand -7.27505 -3.53123
rfingers 7.12502
rthumb 18.6063 -32.6614
lclavicle 2.47456e-014 3.47873e-015
lhumerus 80.1526 40.0831 21.4272
lradius 103.459
lwrist 93.4179
lhand -10.7832 61.311
lfingers 7.12502
lthumb 15.2294 629.27
rfemur -31.063 -25.279 20.9701
rtibia 76.2761
rfoot -8.47625 1.21516
rtoes -21.3731
lfemur -33.1865 1.08863 -30.9496
ltibia 47.2806
lfoot 348.551 3.62017
ltoes 6.70605
1405
root 10.2279 16.6062 -4.31752 11.3913 103.108 7.14429
lowerback -3.25871 4.87171 4.31111
upperback -3.55204 6.49426 -0.410258
thorax -1.32178 3.19576 -2.65814
lowerneck -5.11368 1.84958 1.43089
upperneck 35.0275 8.75444 -9.53348
head 13.115 3.97483 -2.67242
rclavicle 2.02357e-015 3.67752e-015
rhumerus -48.2791 -26.1721 -34.7172
rradius 82.6326
rwrist -49.7815
rhand -5.68053 -3.30831
rfingers 7.12502
rthumb 20.1394 -32.2844
lclavicle 2.02357e-015 3.67752e-015
lhumerus 79.8534 40.4157 22.2997
lradius 105.72
lwrist 94.5776
lhand -11.3254 61.0765
lfingers 7.12502
lthumb 14.707 629.465
rfemur -31.5892 -23.549 19.9116
rtibia 78.3011
rfoot -9.12315 -3.48185
rtoes -16.8958
lfemur -32.943 -1.51131 -30.2265
ltibia 47.0643
lfoot 347.735 4.10953
ltoes 4.27994
1406
root 10.245 16.5928 -4.19704 10.419 104.551 5.98191
lowerback -3.2812 4.8745 4.27492
upperback -3.60592 6.50241 -0.431245
thorax -1.36589 3.20014 -2.66057
lowerneck -5.07255 1.65985 1.36092
upperneck 35.2784 8.52276 -9.34261
head 13.1836 3.90476 -2.61518
rclavicle -6.02411e-015 -9.54865e-015
rhumerus -48.7339 -25.7222 -33.2875
rradius 81.4674
rwrist -50.4895
rhand -4.16006 -2.97713
rfingers 7.12502
rthumb 21.6002 -31.7924
lclavicle -6.02411e-015 -9.54865e-015
lhumerus 79.4842 40.4105 23.1156
lradius 108.065
lwrist 96.0197
lhand -11.6341 60.4068
lfingers 7.12502
lthumb 14.4096 449.887
rfemur -31.9489 -21.2403 18.3803
rtibia 79.9252
rfoot -9.90054 -4.82056
rtoes -10.467
lfemur -32.9449 -3.9383 -29.7918
ltibia 46.9288
lfoot 347.158 4.49458
ltoes 3.21926
1407
root 10.2544 16.5843 -4.06916 9.22451 105.929 4.47173
lowerback -3.38696 4.87262 4.10304
upperback -3.74642 6.50747 -0.536838
thorax -1.45809 3.20413 -2.67259
lowerneck -4.88588 1.38911 1.32684
upperneck 35.3654 8.15577 -9.26158
head 13.1445 3.77205 -2.62577
rclavicle -1.15547e-013 -1.64619e-014
rhumerus -49.3648 -25.3554 -32.0934
rradius 80.5948
rwrist -51.3076
rhand -2.71188 -2.73787
rfingers 7.12502
rthumb 22.9905 -31.3868
lclavicle -1.15547e-013 -1.64619e-014
lhumerus 79.0067 40.0579 23.8048
lradius 110.467
lwrist 97.5544
lhand -11.95 59.63
lfingers 7.12502
lthumb 14.1052 449.131
rfemur -32.2424 -18.3816 16.6211
rtibia 81.066
rfoot -8.76871 -3.80386
rtoes -7.59733
lfemur -33.2663 -5.86296 -29.4992
ltibia 46.9941
lfoot 346.563 4.46834
ltoes 2.68342
1408
root 10.2662 16.5832 -3.92664 8.22303 107.429 3.28089
lowerback -3.49231 4.78893 3.83765
upperback -3.81234 6.40195 -0.589461
thorax -1.49697 3.15671 -2.57962
lowerneck -4.30253 1.27929 1.64158
upperneck 35.1738 8.05129 -9.50689
head 12.948 3.78775 -2.79578
rclavicle -7.2999e-015 5.19325e-015
rhumerus -50.149 -25.1629 -31.0949
rradius 80.0851
rwrist -52.0467
rhand -1.2211 -2.51769
rfingers 7.12502
rthumb 24.4203 -30.9813
lclavicle -7.2999e-015 5.19325e-015
lhumerus 78.4521 39.5268 24.4761
lradius 112.838
lwrist 98.917
lhand -12.3485 59.1547
lfingers 7.12502
lthumb 13.7212 448.682
rfemur -31.9306 -15.3365 14.8764
rtibia 81.3705
rfoot -7.01555 -1.49565
rtoes -3.19721
lfemur -33.4388 -7.10401 -29.1342
ltibia 47.0079
lfoot 345.846 3.84415
ltoes 1.34246
1409
root 10.2651 16.5807 -3.78 7.55366 108.872 2.37783
lowerback -3.61858 4.7779 3.69047
upperback -3.83496 6.38774 -0.673625
thorax -1.45683 3.15389 -2.57514
lowerneck -4.40092 1.01012 1.1605
upperneck 35.465 7.66681 -9.0426
head 13.0262 3.61589 -2.57313
rclavicle -4.51754e-014 3.23025e-016
rhumerus -51.2422 -24.9292 -30.1518
rradius 79.9914
rwrist -52.9027
rhand 0.16021 -2.10672
rfingers 7.12502
rthumb 25.7438 -30.3853
lclavicle -4.51754e-014 3.23025e-016
lhumerus 78.119 38.9015 25.5014
lradius 115.152
lwrist 99.8594
lhand -12.6055 58.9163
lfingers 7.12502
lthumb 13.4734 448.46
rfemur -31.5044 -12.1964 13.2971
rtibia 81.2579
rfoot -5.09242 1.36808
rtoes 1.43738
lfemur -33.6625 -7.66593 -28.7734
ltibia 46.8549
lfoot 345.188 2.7627
ltoes 0.230029
1410
root 10.2489 16.575 -3.62705 6.83724 110.436 1.27095
lowerback -3.82333 4.77641 3.50902
upperback -3.8603 6.3847 -0.83379
thorax -1.37011 3.15793 -2.62175
lowerneck -4.72807 0.774179 0.648326
upperneck 35.9334 7.31682 -8.40712
head 13.2314 3.46597 -2.27055
rclavicle 1.9227e-014 -1.42876e-015
rhumerus -52.3719 -24.7696 -29.3073
rradius 80.0686
rwrist -53.7296
rhand 1.43757 -1.56247
rfingers 7.12502
rthumb 26.9666 -29.658
lclavicle 1.9227e-014 -1.42876e-015
lhumerus 78.0581 38.1972 26.9181
lradius 117.578
lwrist 100.481
lhand -12.8788 58.8608
lfingers 7.12502
lthumb 13.21 448.422
rfemur -31.1434 -9.24917 11.7909
rtibia 81.0652
rfoot -4.00783 3.88939
rtoes 4.17573
lfemur -34.0077 -7.82599 -28.5914
ltibia 46.5234
lfoot 344.721 1.33007
ltoes 0.353204
1411
root 10.2226 16.5698 -3.46725 5.98477 112.239 0.0505197
lowerback -3.87809 4.67152 3.25937
upperback -3.93899 6.25427 -1.02926
thorax -1.43384 3.09625 -2.68955
lowerneck -4.82205 0.549357 0.442639
upperneck 36.24 7.02376 -8.09944
head 13.348 3.35939 -2.14642
rclavicle -3.01535e-014 1.15544e-015
rhumerus -53.3934 -24.7667 -28.62
rradius 80.182
rwrist -54.2691
rhand 2.7468 -1.2234
rfingers 7.12502
rthumb 28.2186 -29.1189
lclavicle -3.01535e-014 1.15544e-015
lhumerus 78.1538 37.374 28.4658
lradius 120.025
lwrist 101.045
lhand -13.1939 58.9148
lfingers 7.12502
lthumb 12.9063 448.496
rfemur -30.4393 -6.61212 10.2956
rtibia 80.4517
rfoot -3.78349 6.23166
rtoes 6.23892
lfemur -34.2453 -7.82925 -28.6086
ltibia 45.9812
lfoot 344.514 -0.264757
ltoes 0.380225
1412
root 10.1895 16.5653 -3.30197 5.25426 114.278 -0.882695
lowerback -3.62682 4.46599 3.07267
upperback -4.0872 6.00015 -1.22404
thorax -1.74212 2.96623 -2.82689
lowerneck -4.6083 0.310461 0.494392
upperneck 36.3583 6.73378 -8.0729
head 13.3344 3.27278 -2.18179
rclavicle 6.70122e-014 7.83957e-015
rhumerus -54.5606 -24.7681 -27.9961
rradius 80.4899
rwrist -54.5777
rhand 4.00803 -1.04463
rfingers 7.12502
rthumb 29.4234 -28.7348
lclavicle 6.70122e-014 7.83957e-015
lhumerus 78.3052 36.4604 29.921
lradius 122.348
lwrist 101.64
lhand -13.3323 58.7818
lfingers 7.12502
lthumb 12.7728 448.371
rfemur -29.1528 -4.11821 9.0026
rtibia 79.1143
rfoot -3.73014 9.20968
rtoes 8.41386
lfemur -34.2721 -8.09032 -28.6099
ltibia 45.2591
lfoot 344.56 -1.90447
ltoes -0.250815
1413
root 10.1485 16.5592 -3.13017 4.85067 116.455 -1.47702
lowerback -3.72223 4.34681 2.99806
upperback -3.86829 5.83034 -1.30439
thorax -1.47294 2.88718 -2.85377
lowerneck -4.99841 0.0290597 -0.0795837
upperneck 36.4518 6.33614 -7.73524
head 13.4077 3.05197 -1.98715
rclavicle 5.59625e-015 -1.35236e-014
rhumerus -55.6042 -25.0711 -27.1862
rradius 80.9896
rwrist -54.9065
rhand 4.98701 -0.719981
rfingers 7.12502
rthumb 30.3576 -28.2419
lclavicle 5.59625e-015 -1.35236e-014
lhumerus 78.893 35.7259 32.0113
lradius 124.619
lwrist 101.859
lhand -13.3223 58.6891
lfingers 7.12502
lthumb 12.7825 448.278
rfemur -27.7097 -1.64509 8.03158
rtibia 77.4216
rfoot -3.49531 11.9345
rtoes 11.1694
lfemur -34.4655 -8.89354 -28.4398
ltibia 44.6703
lfoot 344.784 -3.37918
ltoes -0.960744
1414
root 10.0979 16.5541 -2.95152 4.79388 118.592 -1.82326
lowerback -3.81729 4.34168 2.92589
upperback -3.70758 5.8176 -1.24129
thorax -1.26798 2.88711 -2.73334
lowerneck -5.11514 -0.35548 -0.750081
upperneck 36.3468 5.79965 -7.47659
head 13.3312 2.76275 -1.82523
rclavicle -1.03585e-014 1.33683e-014
rhumerus -56.8324 -24.8952 -26.1154
rradius 81.7447
rwrist -55.4149
rhand 5.599 -0.346718
rfingers 7.12502
rthumb 30.9411 -27.7594
lclavicle -1.03585e-014 1.33683e-014
lhumerus 79.6268 34.6722 34.5754
lradius 126.799
lwrist 101.615
lhand -13.2584 58.8953
lfingers 7.12502
lthumb 12.8441 448.48
rfemur -26.3943 0.666902 7.47826
rtibia 75.4601
rfoot -3.09359 14.8994
rtoes 12.1439
lfemur -35.0728 -9.95994 -28.0944
ltibia 44.4208
lfoot 345.047 -4.60421
ltoes -1.75968
1415
root 10.0388 16.5515 -2.76341 5.00791 120.703 -1.88336
lowerback -3.83855 4.15373 2.8984
upperback -3.65842 5.56712 -1.2399
thorax -1.22491 2.76377 -2.72265
lowerneck -4.98653 -0.533833 -0.851467
upperneck 36.1251 5.45352 -7.286
head 13.1738 2.63 -1.77133
rclavicle -1.27014e-013 -6.26172e-015
rhumerus -57.8141 -24.6259 -25.7565
rradius 82.6324
rwrist -55.8022
rhand 6.29138 -0.314802
rfingers 7.12502
rthumb 31.6009 -27.6
lclavicle -1.27014e-013 -6.26172e-015
lhumerus 80.1101 34.0089 36.2159
lradius 128.829
lwrist 101.248
lhand -13.1555 58.9837
lfingers 7.12502
lthumb 12.9433 448.562
rfemur -25.0512 2.65628 7.49607
rtibia 72.9195
rfoot -2.37323 17.3435
rtoes 10.4739
lfemur -35.8209 -10.8947 -27.5828
ltibia 44.2445
lfoot 345.353 -5.90493
ltoes -2.08109
1416
root 9.97306 16.5512 -2.5649 5.25616 122.909 -1.83273
lowerback -3.74023 3.76415 2.86466
upperback -3.6698 5.05297 -1.32803
thorax -1.32106 2.5051 -2.82255
lowerneck -5.0308 -0.536066 -0.547707
upperneck 36.1902 5.3169 -6.98865
head 13.1947 2.64893 -1.72359
rclavicle 1.20566e-013 1.14798e-014
rhumerus -58.6407 -24.3406 -26.0035
rradius 83.6566
rwrist -56.2106
rhand 7.22081 -0.626153
rfingers 7.12502
rthumb 32.4858 -27.7334
lclavicle 1.20566e-013 1.14798e-014
lhumerus 80.2449 33.7806 36.8635
lradius 130.709
lwrist 100.849
lhand -12.825 58.842
lfingers 7.12502
lthumb 13.2619 448.4
rfemur -23.5256 4.42445 7.90136
rtibia 69.8846
rfoot -0.945113 19.2443
rtoes 12.2693
lfemur -36.4659 -11.7539 -27.0437
ltibia 43.9265
lfoot 345.712 -7.31047
ltoes -2.03804
